<?xml version="1.0" encoding="UTF-8"?><svg id="a" xmlns="http://www.w3.org/2000/svg" viewBox="0 0 995.6223 969.61253"><path d="M992.16328,519.01638c-57.19459,11.27018-113.31333,22.32839-170.3034,33.55828-1.49036-7.63734-2.80365-14.82798-4.30423-21.97934-8.82763-42.06825-46.89795-60.13328-76.51042-61.54332-37.3144-1.77684-67.12549,14.91698-93.20821,39.63702-26.76409,25.36613-41.72111,57.6598-52.08782,92.21112-13.05184,43.49999-19.4707,87.92062-14.12881,133.3601,3.76046,31.98563,16.39401,59.69,43.821,78.38302,20.22192,13.7826,43.152,15.63501,66.94125,12.36394,25.28135-3.47615,46.59011-14.33382,63.75193-33.05076,13.26519-14.46673,22.84863-31.36553,30.41856-49.35301,4.63679-11.01812,8.82218-22.24716,12.66363-33.56645,1.38145-4.07251,2.98838-4.79389,7.1576-4.47993,54.73083,4.12102,109.48272,7.96946,164.22764,11.9094,2.57331.18523,5.13116.58647,9.3106,1.07625-4.57622,15.38979-8.13997,30.28271-13.3982,44.55323-22.49814,61.05602-59.92571,111.05336-113.14555,148.83152-31.32373,22.23538-66.31463,36.84466-103.80304,44.26217-26.97932,5.33812-54.45571,9.48051-81.88292,10.97231-55.67575,3.02813-109.86704-4.28804-158.75946-33.61827-51.28233-30.76426-84.19284-76.10247-101.07416-132.96994-19.72054-66.43215-17.84788-133.32878-1.65853-200.11316,12.24501-50.51305,31.41679-98.05525,63.03658-139.93412,42.90925-56.83121,98.59151-95.0674,167.12977-114.6903,33.88598-9.7017,68.50294-14.65086,103.64535-15.55426,43.10236-1.10806,85.31694,3.81427,124.96181,22.16514,62.10385,28.7467,101.48038,76.97421,120.87759,142.01539,2.43856,8.17674,4.12186,16.57826,6.32145,25.55397Z" fill="#fff" stroke-width="0"/><path d="M645.53344,969.61253c-53.99707.00098-99.33203-11.40039-138.06836-34.63867-50.35938-30.20996-84.78955-75.49414-102.33301-134.59375-18.72949-63.09277-19.28418-129.03223-1.69629-201.58789,13.65479-56.32715,34.43506-102.43945,63.5293-140.97363,43.10156-57.08545,99.83008-96.01514,168.61133-115.70752,33.05273-9.46289,68.16211-14.73242,104.35254-15.6626,50.27441-1.29785,90.37988,5.8335,126.22559,22.42627,61.21973,28.3374,102.40234,76.71094,122.4043,143.77686,1.67871,5.63184,2.98242,11.2666,4.3623,17.23145.63965,2.76758,1.29102,5.58398,1.99512,8.45898l.70605,2.88184-176.00098,34.68066-.54395-2.78711c-.47852-2.45117-.93848-4.85547-1.39258-7.22852-.97168-5.0791-1.88867-9.87695-2.90332-14.71191-8.16699-38.91797-42.98633-57.82275-73.87109-59.29346-32.55957-1.55176-61.51074,10.79834-91.12305,38.86279-22.9082,21.71094-39.2168,50.61719-51.32324,90.96875-14.29688,47.64941-18.88574,90.89746-14.02832,132.21387,4.07129,34.62695,18.00684,59.6084,42.60254,76.37109,17.34961,11.82715,37.98926,15.6084,64.95898,11.89844,24.72266-3.39844,45.59863-14.21777,62.04883-32.1582,11.77734-12.84473,21.55566-28.7207,29.89453-48.53613,4.39648-10.44824,8.51562-21.36621,12.5918-33.37793,1.97754-5.83203,5.17773-6.7666,10.05469-6.39551,41.04492,3.08984,82.79199,6.07715,123.16504,8.96484,13.68457.97949,27.36914,1.95898,41.05273,2.94336,1.74707.12598,3.44336.34082,5.58984.61426,1.13086.14355,2.38965.30273,3.84766.47363l3.34766.3916-.96094,3.23145c-1.45117,4.88184-2.81836,9.77734-4.14062,14.51172-2.92676,10.48242-5.69141,20.38379-9.31348,30.21484-22.88965,62.11523-61.30078,112.63672-114.16602,150.16211-31.07129,22.05762-66.3623,37.10742-104.89355,44.73145-30.70703,6.07617-57.62012,9.68164-82.27832,11.02246-7.59277.41309-15.03027.62012-22.30371.62012ZM751.26488,331.96946c-3.6748,0-7.39941.04883-11.18945.146-35.71289.91846-70.34668,6.11475-102.93848,15.4458-67.57227,19.34668-123.30371,57.5918-165.64746,113.67334-28.61719,37.90234-49.07568,83.33496-62.54395,138.89355-17.34619,71.55566-16.81592,136.53125,1.62109,198.63867,17.12744,57.69727,50.70996,101.8877,99.81445,131.3457,42.95215,25.76758,94.3623,36.63184,157.14746,33.21973,24.38965-1.32715,51.04395-4.90039,81.4873-10.92285,37.73926-7.46875,72.29688-22.20215,102.71191-43.79395,51.91504-36.85059,89.64062-86.47656,112.12695-147.5,3.54297-9.61523,6.27832-19.41016,9.17383-29.7793,1.03906-3.7207,2.10645-7.54102,3.22266-11.38672-.19336-.02441-.38379-.04883-.57031-.07227-2.06152-.2627-3.69043-.46875-5.2832-.58398-13.68262-.98438-27.36621-1.96387-41.0498-2.94238-40.37793-2.88867-82.13086-5.87598-123.18652-8.96777-3.12402-.23047-3.35938-.08887-4.25977,2.56445-4.12109,12.1416-8.28711,23.18262-12.73633,33.75586-8.59473,20.42578-18.71582,36.83594-30.94141,50.16895-17.36621,18.93945-39.38867,30.35938-65.45508,33.94336-28.43848,3.90918-50.34277-.16602-68.92383-12.83008-26.0332-17.74316-40.76562-44.04004-45.04004-80.39453-4.94922-42.10156-.29492-86.09863,14.22949-134.50488,12.40234-41.33887,29.19629-71.03516,52.85254-93.45508,30.80859-29.19824,61.0957-42.04297,95.29297-40.41064,33.06445,1.57471,70.36133,21.91064,79.15039,63.79248,1.02441,4.88477,1.94629,9.70605,2.92285,14.81152.2793,1.45898.56152,2.93164.84766,4.41895l164.61426-32.43652c-.45312-1.90527-.8877-3.78711-1.31836-5.64648-1.3584-5.87598-2.64258-11.42676-4.27148-16.8877-19.5166-65.44092-59.67188-112.62842-119.35156-140.25342-32.33594-14.96777-68.32617-22.0498-112.50879-22.0498Z" fill="#fff" stroke-width="0"/><path d="M402.77881,614.47071c4.73109-20.2562,11.03322-40.31227,18.704-60.1773,18.72335-48.48635,43.92752-93.12454,80.73548-130.52553,12.30072-12.49805,25.22799-23.76412,38.77131-33.82406-2.73935-16.19031-16.17253-42.02499-16.17253-42.02499-20.81725-34.78917-50.42877-60.30815-85.88701-78.80917-34.62397-18.06549-70.28392-34.13828-105.1987-51.66341-18.37638-9.22407-36.97501-18.44167-53.93403-29.92983-17.28345-11.70822-20.77443-30.49603-11.21311-47.52439,6.3257-11.26629,16.21301-18.83171,28.54103-22.90432,25.16092-8.31175,50.21078-6.46895,74.77926,2.13762,25.20582,8.8297,39.99414,27.18366,45.40484,53.09437,1.55312,7.43837,2.3215,15.04072,3.52718,23.081,3.93858.1913,7.98248.58944,12.02265.55014,20.12735-.19641,40.2532-.61924,60.38041-.75209,29.00687-.19137,58.01702-.05703,87.02264-.34363,17.06883-.16859,17.30687-.43959,15.43344-17.83631-7.07512-65.70686-40.7615-112.6994-100.25347-141.39043-38.78835-18.70685-80.30757-27.35185-122.75734-30.75813-28.13244-2.25783-56.57903-2.49598-84.79464-1.37695-39.00263,1.54679-76.5734,10.7741-110.82192,30.00744-60.67762,34.07627-92.79836,85.57794-92.00536,155.94979.58746,52.14964,24.49155,91.33609,67.73674,119.65727,40.10494,26.26418,83.58869,45.72454,127.54742,64.33271,22.7369,9.62473,45.61072,19.0937,65.40364,34.33152,22.1221,17.0324,26.93122,45.32766,11.30401,67.75869-8.43057,12.10105-19.66895,21.035-33.57358,26.09626-25.5679,9.30725-51.70606,9.5358-77.88195,3.15727-37.56722-9.15377-57.55374-31.4663-62.4533-69.68633-1.44847-11.30289-1.56144-22.77608-2.32849-34.82376-58.6003,1.1417-117.23152,2.28447-176.70424,3.44332-1.88575,20.9408-1.97641,41.03987,1.66149,60.93349,10.72286,58.6317,41.76317,102.87948,95.17081,130.21124,42.16538,21.57787,88.1714,29.17383,134.7359,32.74579,26.99362,2.0706,54.23085,2.36356,81.30697,1.61579,0,0,51.26449-.58554,85.79046-14.75308Z" fill="#fff" stroke-width="0"/><path d="M290.69457,632.43382c-19.56396,0-37.80615-.66309-55.22998-2-39.00928-2.99121-89.69971-9.45215-135.81055-33.04785-53.06494-27.15625-85.58838-71.64355-96.66797-132.2251-3.31494-18.12988-3.854-37.73486-1.69629-61.69775l.22803-2.53027,181.95654-3.54541.17236,2.70654c.24561,3.85791.42578,7.68652.6001,11.38867.37939,8.05469.73779,15.6626,1.71045,23.25488,4.74854,37.04053,23.91357,58.42285,60.31299,67.29297,26.95752,6.56738,52.60742,5.53516,76.24121-3.06738,13.125-4.77734,23.96436-13.20654,32.21777-25.05273,14.62109-20.98779,10.11816-47.85791-10.70801-63.89209-18.92529-14.56982-41.22217-24.00195-62.78467-33.12354l-1.99463-.84375c-42.06299-17.80615-86.59424-37.45898-127.99512-64.57178-45.21875-29.61328-68.43994-70.65869-69.01855-121.99658-.78711-69.875,30.6543-123.18652,93.45166-158.45361C208.63646,12.52122,246.3518,2.30393,287.77807.66087c30.57422-1.2124,58.4209-.75977,85.1333,1.38379,47.96484,3.84912,88.44775,13.99902,123.76221,31.03027,60.45264,29.15479,94.71631,77.48242,101.84033,143.64062.99707,9.25342,1.5459,14.35107-1.35059,17.60791-2.87012,3.22803-7.84375,3.27734-16.87305,3.36621-16.36426.16162-32.99707.18994-49.08301.21729-12.43945.02148-25.30273.04297-37.94922.12646-11.28809.07471-22.771.24316-33.87598.40625-8.83154.12988-17.66309.25977-26.49512.3457-2.89062.0293-5.73535-.15625-8.49707-.33447-1.23828-.08008-2.46973-.15967-3.69092-.21924l-2.3208-.1123-.34473-2.29834c-.38721-2.58252-.72998-5.11963-1.06738-7.62158-.71777-5.31641-1.39551-10.33789-2.43164-15.30029-5.34229-25.58496-20.00049-42.74316-43.56689-50.99854-25.92236-9.08105-49.78418-9.77441-72.95312-2.12158-12.08154,3.9917-21.15186,11.25879-26.9585,21.60059-9.23145,16.44043-5.27295,33.21973,10.33105,43.79004,16.18506,10.96338,34.18701,19.99512,51.5957,28.72949l2.02002,1.01318c14.67578,7.3667,29.7417,14.6001,44.31201,21.5957,20.07617,9.63867,40.83594,19.60596,60.92627,30.08838,37.83643,19.7417,67.10986,46.61279,87.0083,79.8667l.08203.14795c.55762,1.0708,13.67188,26.41943,16.45312,42.85938l.29004,1.71289-1.39453,1.03564c-13.40918,9.96045-26.34277,21.24414-38.44141,33.53711-33.31299,33.84961-59.51758,76.22852-80.11133,129.55859-7.76025,20.09668-14.01416,40.2168-18.58789,59.80078l-.33203,1.42285-1.35205.55469c-34.62988,14.20996-84.71875,14.94141-86.83447,14.96484-9.05225.25098-17.81494.37598-26.32617.37598ZM6.71703,406.50169c-1.85059,22.29248-1.25781,40.66504,1.84619,57.63965,10.74512,58.75537,42.26172,101.88721,93.67383,128.19775,45.21191,23.13672,95.18018,29.49121,133.66113,32.44238,24.80566,1.90234,51.30518,2.43164,81.01221,1.6084.54541-.00586,49.84375-.72852,83.44629-13.99902,4.60156-19.38574,10.81641-39.26758,18.48145-59.11914,20.87891-54.06738,47.49219-97.07861,81.35938-131.49219,11.87598-12.06592,24.54492-23.17773,37.67969-33.04883-3.13867-15.20654-14.78223-37.96436-15.53809-39.43164-19.35156-32.30664-47.85547-58.44141-84.72021-77.67627-20.00732-10.43896-40.72363-20.38525-60.7583-30.00439-14.5918-7.00586-29.68115-14.25049-44.40088-21.63916l-2.01904-1.01318c-17.57178-8.81543-35.7417-17.93164-52.2334-29.10303-17.98926-12.18604-22.73682-32.30664-12.09473-51.25879,6.521-11.61426,16.65625-19.75928,30.12354-24.20801,24.06201-7.94824,49.83594-7.22314,76.60547,2.15381,25.57129,8.95752,41.46582,27.52637,47.24268,55.18994,1.07764,5.16211,1.76855,10.28125,2.5,15.70117.23438,1.73486.4707,3.4873.72314,5.25977.48096.02979.96387.06104,1.44727.09229,2.66016.17139,5.40771.34912,8.07715.32324,8.82227-.08594,17.64502-.21582,26.46729-.34521,11.11572-.16357,22.61035-.33203,33.92188-.40674,12.66016-.0835,25.53027-.10547,37.97656-.12695,16.07422-.02734,32.69629-.05518,49.03613-.2168,6.16699-.06104,11.49219-.11328,12.69336-1.46436,1.22754-1.37988.63574-6.87354-.0498-13.23389-6.90039-64.08057-40.0957-110.89404-98.6665-139.14111-34.67285-16.72168-74.49854-26.69385-121.75244-30.48535-26.48438-2.12598-54.10889-2.57373-84.45557-1.37012-40.52197,1.60693-77.37891,11.58154-109.54639,29.64648-60.85303,34.1748-91.32129,85.80127-90.55908,153.44629.55615,49.33203,22.91504,88.80322,66.45508,117.31738,41.00781,26.85547,85.27393,46.38867,127.09961,64.09424l1.99316.84326c21.89307,9.26123,44.53125,18.8374,64.03467,33.85254,23.30811,17.94482,28.31299,48.06738,11.90088,71.625-8.93359,12.82373-20.68555,21.95459-34.92969,27.14014-24.70508,8.99023-51.46094,10.08594-79.52246,3.24707-19.53223-4.75977-34.22461-12.87305-44.91748-24.80566-10.69189-11.93213-17.12842-27.39551-19.67676-47.27441-1.00195-7.81836-1.36523-15.53711-1.75049-23.7085-.13184-2.80762-.26758-5.68799-.43262-8.58838l-171.43408,3.34033Z" fill="#fff" stroke-width="0"/></svg>